<?xml version="1.0" standalone="no"?>
<!DOCTYPE svg PUBLIC "-//W3C//DTD SVG 20010904//EN"
 "http://www.w3.org/TR/2001/REC-SVG-20010904/DTD/svg10.dtd">
<svg version="1.0" xmlns="http://www.w3.org/2000/svg"
 width="50" height="50" viewBox="0 0 343.000000 332.000000"
 preserveAspectRatio="xMidYMid meet">

<g transform="translate(0.000000,332.000000) scale(0.100000,-0.100000)"
fill="#000000" stroke="none">
<path d="M490 2810 c-27 -27 -27 -83 2 -110 20 -18 35 -20 159 -20 76 0 140
-4 143 -8 2 -4 16 -88 30 -187 15 -99 33 -227 42 -285 8 -58 35 -242 59 -410
l43 -305 -23 -55 c-13 -30 -43 -98 -68 -150 -99 -211 -104 -231 -64 -268 l23
-22 835 0 836 0 21 23 c22 23 28 60 16 92 -18 45 -19 45 -804 45 -585 0 -740
3 -740 13 1 6 23 59 49 117 l49 105 706 5 c689 5 706 5 725 25 23 24 341 977
341 1022 0 20 -8 40 -22 53 -22 20 -30 20 -940 20 l-918 0 -9 23 c-4 12 -14
66 -20 120 -15 116 -26 154 -51 167 -10 6 -104 10 -209 10 -178 0 -192 -1
-211 -20z"/>
<path d="M1014 886 c-48 -21 -97 -70 -123 -121 -20 -40 -23 -58 -19 -117 6
-82 36 -133 107 -183 40 -28 49 -30 129 -30 79 0 91 3 129 28 200 136 109 437
-132 436 -33 0 -74 -6 -91 -13z"/>
<path d="M2118 873 c-196 -116 -149 -401 72 -441 98 -18 190 23 248 111 24 36
27 50 27 123 0 75 -3 86 -30 125 -17 24 -50 57 -74 74 -37 26 -53 30 -119 33
-69 3 -82 0 -124 -25z"/>
</g>
</svg>
